{"title":"Baadshah (2013) Telugu 720p BRrip x264 Junaid-Zia (PimpRG)","uid":8802028,"size":1832776523,"categoryP":"video","categoryS":"hd___movies","magnet":"?xt=urn:btih:fb2fa8740ecc40ad18235a9f473034724a84d5bb&amp;dn=Baadshah+%282013%29+Telugu+720p+BRrip+x264+Junaid-Zia+%28PimpRG%29&amp;tr=udp%3A%2F%2Ftracker.openbittorrent.com%3A80&amp;tr=udp%3A%2F%2Fopen.demonii.com%3A1337&amp;tr=udp%3A%2F%2Ftracker.coppersurfer.tk%3A6969&amp;tr=udp%3A%2F%2Fexodus.desync.com%3A6969","seeders":1,"leechers":0,"uploader":"junaidzia","files":13,"time":1376231385,"description":"[IMG]http://imageshack.us/a/img713/9855/x0yn.jpg[/IMG]\n\n\n\nIMDB:\n\n            &lt;a href=&quot; http://www.imdb.com/title/tt2204243&quot; rel=&quot;nofollow&quot; target=&quot;_NEW&quot;&gt; http://www.imdb.com/title/tt2204243&lt;/a&gt;\n\n\n[IMG]http://imageshack.us/a/img69/8950/lcn1.jpg[/IMG]\n\nGeneral\nFormat                         : Matroska\nFormat version                 : Version 4 / Version 2\nFile size                      : 1.71 GiB\nDuration                       : 2h 44mn\nOverall bit rate               : 1 484 Kbps\n\nVideo\nID                             : 1\nFormat                         : AVC\nFormat/Info                    : Advanced Video Codec\nFormat profile                 : &lt;a class=&quot;__cf_email__&quot; href=&quot;/cdn-cgi/l/email-protection&quot; data-cfemail=&quot;591438303719156a7768&quot;&gt;[email&amp;#160;protected]&lt;/a&gt;&lt;script cf-hash='f9e31' type=&quot;text/javascript&quot;&gt;\n/* &lt;![CDATA[ */!function(){try{var t=&quot;currentScript&quot;in document?document.currentScript:function(){for(var t=document.getElementsByTagName(&quot;script&quot;),e=t.length;e--;)if(t[e].getAttribute(&quot;cf-hash&quot;))return t[e]}();if(t&amp;&amp;t.previousSibling){var e,r,n,i,c=t.previousSibling,a=c.getAttribute(&quot;data-cfemail&quot;);if(a){for(e=&quot;&quot;,r=parseInt(a.substr(0,2),16),n=2;a.length-n;n+=2)i=parseInt(a.substr(n,2),16)^r,e+=String.fromCharCode(i);e=document.createTextNode(e),c.parentNode.replaceChild(e,c)}}}catch(u){}}();/* ]]&gt; */&lt;/script&gt;\nFormat settings, CABAC         : Yes\nFormat settings, ReFrames      : 4 frames\nCodec ID                       : V_MPEG4/ISO/AVC\nDuration                       : 2h 44mn\nBit rate                       : 1 354 Kbps\nWidth                          : 1 280 pixels\nHeight                         : 544 pixels\nDisplay aspect ratio           : 2.35:1\nFrame rate mode                : Constant\nFrame rate                     : 24.000 fps\nColor space                    : YUV\nChroma subsampling             : 4:2:0\nBit depth                      : 8 bits\nScan type                      : Progressive\nBits/(Pixel*Frame)             : 0.081\nStream size                    : 1.52 GiB (89%)\n\nLanguage                       : Telugu\nDefault                        : Yes\nForced                         : No\n\nAudio\nID                             : 2\nFormat                         : AC-3\nFormat/Info                    : Audio Coding 3\nMode extension                 : CM (complete main)\nFormat settings, Endianness    : Big\nCodec ID                       : A_AC3\nDuration                       : 2h 44mn\nBit rate mode                  : Constant\nBit rate                       : 128 Kbps\nChannel(s)                     : 6 channels\nChannel positions              : Front: L C R, Side: L R, LFE\nSampling rate                  : 48.0 KHz\nBit depth                      : 16 bits\nCompression mode               : Lossy\nStream size                    : 151 MiB (9%)\nTitle                          : Encoder Junaid-Zia\nLanguage                       : Telugu\nDefault                        : Yes\nForced                         : No\n\nText\nID                             : 3\nFormat                         : UTF-8\nCodec ID                       : S_TEXT/UTF8\nCodec ID/Info                  : UTF-8 Plain Text\nDefault                        : Yes\nForced                         : No\n\n\nScreenshots:\n &lt;a href=&quot;\nhttp://imageshack.us/a/img849/1069/ssjd.jpg&quot; rel=&quot;nofollow&quot; target=&quot;_NEW&quot;&gt;\nhttp://imageshack.us/a/img849/1069/ssjd.jpg&lt;/a&gt;\n &lt;a href=&quot;\nhttp://imageshack.us/a/img89/672/sgsk.jpg&quot; rel=&quot;nofollow&quot; target=&quot;_NEW&quot;&gt;\nhttp://imageshack.us/a/img89/672/sgsk.jpg&lt;/a&gt;\n &lt;a href=&quot;\nhttp://imageshack.us/a/img694/2614/uzsl.jpg&quot; rel=&quot;nofollow&quot; target=&quot;_NEW&quot;&gt;\nhttp://imageshack.us/a/img694/2614/uzsl.jpg&lt;/a&gt;\n &lt;a href=&quot;\nhttp://imageshack.us/a/img46/690/j1mv.jpg&quot; rel=&quot;nofollow&quot; target=&quot;_NEW&quot;&gt;\nhttp://imageshack.us/a/img46/690/j1mv.jpg&lt;/a&gt;\n &lt;a href=&quot;\nhttp://imageshack.us/a/img21/831/rwpa.jpg&quot; rel=&quot;nofollow&quot; target=&quot;_NEW&quot;&gt;\nhttp://imageshack.us/a/img21/831/rwpa.jpg&lt;/a&gt;\n &lt;a href=&quot;\nhttp://imageshack.us/a/img401/4305/i57m.jpg&quot; rel=&quot;nofollow&quot; target=&quot;_NEW&quot;&gt;\nhttp://imageshack.us/a/img401/4305/i57m.jpg&lt;/a&gt;\n &lt;a href=&quot;\nhttp://imageshack.us/a/img543/8131/pjjo.jpg&quot; rel=&quot;nofollow&quot; target=&quot;_NEW&quot;&gt;\nhttp://imageshack.us/a/img543/8131/pjjo.jpg&lt;/a&gt;\n &lt;a href=&quot;\nhttp://imageshack.us/a/img33/4333/3l05.jpg&quot; rel=&quot;nofollow&quot; target=&quot;_NEW&quot;&gt;\nhttp://imageshack.us/a/img33/4333/3l05.jpg&lt;/a&gt;\n &lt;a href=&quot;\nhttp://imageshack.us/a/img6/1926/r308.jpg&quot; rel=&quot;nofollow&quot; target=&quot;_NEW&quot;&gt;\nhttp://imageshack.us/a/img6/1926/r308.jpg&lt;/a&gt;\n\n\n\n[b]Seed After Downloading, Remember Sharing is Caring.[/b]\n\n","torrent":{"xt":"urn:btih:fb2fa8740ecc40ad18235a9f473034724a84d5bb","amp;dn":"Baadshah+%282013%29+Telugu+720p+BRrip+x264+Junaid-Zia+%28PimpRG%29","amp;tr":["udp%3A%2F%2Ftracker.openbittorrent.com%3A80","udp%3A%2F%2Fopen.demonii.com%3A1337","udp%3A%2F%2Ftracker.coppersurfer.tk%3A6969","udp%3A%2F%2Fexodus.desync.com%3A6969"],"infoHash":"fb2fa8740ecc40ad18235a9f473034724a84d5bb","infoHashBuffer":{"type":"Buffer","data":[251,47,168,116,14,204,64,173,24,35,90,159,71,48,52,114,74,132,213,187]},"announce":[],"urlList":[]}}